<mxfile host="app.diagrams.net" modified="2023-11-14T07:58:28.070Z" agent="Mozilla/5.0 (Windows NT 10.0; Win64; x64) AppleWebKit/537.36 (KHTML, like Gecko) Chrome/119.0.0.0 Safari/537.36" etag="RbHJKVnY3_K83tJXULl2" version="22.1.0" type="device">
  <diagram name="Page-1" id="JieeOiLFbkXor9kIOIpu">
    <mxGraphModel dx="2950" dy="1132" grid="1" gridSize="10" guides="1" tooltips="1" connect="1" arrows="1" fold="1" page="1" pageScale="1" pageWidth="850" pageHeight="1100" math="0" shadow="0">
      <root>
        <mxCell id="0" />
        <mxCell id="1" parent="0" />
        <mxCell id="mUevt5ZIN5rANCcbfIv0-19" value="User" style="swimlane;fontStyle=1;align=center;verticalAlign=top;childLayout=stackLayout;horizontal=1;startSize=26;horizontalStack=0;resizeParent=1;resizeParentMax=0;resizeLast=0;collapsible=1;marginBottom=0;whiteSpace=wrap;html=1;fillColor=#dae8fc;strokeColor=#6c8ebf;" parent="1" vertex="1">
          <mxGeometry y="260" width="160" height="120" as="geometry" />
        </mxCell>
        <mxCell id="mUevt5ZIN5rANCcbfIv0-20" value="+ name: String&lt;br&gt;+ email: String&lt;br&gt;+ phone: String" style="text;strokeColor=#6c8ebf;fillColor=#dae8fc;align=left;verticalAlign=top;spacingLeft=4;spacingRight=4;overflow=hidden;rotatable=0;points=[[0,0.5],[1,0.5]];portConstraint=eastwest;whiteSpace=wrap;html=1;" parent="mUevt5ZIN5rANCcbfIv0-19" vertex="1">
          <mxGeometry y="26" width="160" height="94" as="geometry" />
        </mxCell>
        <mxCell id="mUevt5ZIN5rANCcbfIv0-24" value="Transaction" style="swimlane;fontStyle=1;align=center;verticalAlign=top;childLayout=stackLayout;horizontal=1;startSize=26;horizontalStack=0;resizeParent=1;resizeParentMax=0;resizeLast=0;collapsible=1;marginBottom=0;whiteSpace=wrap;html=1;fillColor=#dae8fc;strokeColor=#6c8ebf;" parent="1" vertex="1">
          <mxGeometry x="607" y="280" width="160" height="120" as="geometry" />
        </mxCell>
        <mxCell id="mUevt5ZIN5rANCcbfIv0-25" value="+ createdOn: TimeStamp&lt;br&gt;+ piadBy: String" style="text;strokeColor=#6c8ebf;fillColor=#dae8fc;align=left;verticalAlign=top;spacingLeft=4;spacingRight=4;overflow=hidden;rotatable=0;points=[[0,0.5],[1,0.5]];portConstraint=eastwest;whiteSpace=wrap;html=1;" parent="mUevt5ZIN5rANCcbfIv0-24" vertex="1">
          <mxGeometry y="26" width="160" height="94" as="geometry" />
        </mxCell>
        <mxCell id="mUevt5ZIN5rANCcbfIv0-26" value="Group" style="swimlane;fontStyle=1;align=center;verticalAlign=top;childLayout=stackLayout;horizontal=1;startSize=26;horizontalStack=0;resizeParent=1;resizeParentMax=0;resizeLast=0;collapsible=1;marginBottom=0;whiteSpace=wrap;html=1;fillColor=#dae8fc;strokeColor=#6c8ebf;" parent="1" vertex="1">
          <mxGeometry x="1230" y="280" width="160" height="120" as="geometry" />
        </mxCell>
        <mxCell id="mUevt5ZIN5rANCcbfIv0-27" value="+ name: String&lt;br&gt;+ type: String" style="text;strokeColor=#6c8ebf;fillColor=#dae8fc;align=left;verticalAlign=top;spacingLeft=4;spacingRight=4;overflow=hidden;rotatable=0;points=[[0,0.5],[1,0.5]];portConstraint=eastwest;whiteSpace=wrap;html=1;" parent="mUevt5ZIN5rANCcbfIv0-26" vertex="1">
          <mxGeometry y="26" width="160" height="94" as="geometry" />
        </mxCell>
        <mxCell id="mUevt5ZIN5rANCcbfIv0-28" value="Debt" style="swimlane;fontStyle=1;align=center;verticalAlign=top;childLayout=stackLayout;horizontal=1;startSize=26;horizontalStack=0;resizeParent=1;resizeParentMax=0;resizeLast=0;collapsible=1;marginBottom=0;whiteSpace=wrap;html=1;fillColor=#dae8fc;strokeColor=#6c8ebf;" parent="1" vertex="1">
          <mxGeometry x="379" y="810" width="160" height="116" as="geometry" />
        </mxCell>
        <mxCell id="mUevt5ZIN5rANCcbfIv0-29" value="+ field: type" style="text;strokeColor=#6c8ebf;fillColor=#dae8fc;align=left;verticalAlign=top;spacingLeft=4;spacingRight=4;overflow=hidden;rotatable=0;points=[[0,0.5],[1,0.5]];portConstraint=eastwest;whiteSpace=wrap;html=1;" parent="mUevt5ZIN5rANCcbfIv0-28" vertex="1">
          <mxGeometry y="26" width="160" height="90" as="geometry" />
        </mxCell>
        <mxCell id="mUevt5ZIN5rANCcbfIv0-30" value="Category" style="swimlane;fontStyle=1;align=center;verticalAlign=top;childLayout=stackLayout;horizontal=1;startSize=26;horizontalStack=0;resizeParent=1;resizeParentMax=0;resizeLast=0;collapsible=1;marginBottom=0;whiteSpace=wrap;html=1;fillColor=#f8cecc;strokeColor=#b85450;" parent="1" vertex="1">
          <mxGeometry x="940" y="680" width="190" height="120" as="geometry" />
        </mxCell>
        <mxCell id="mUevt5ZIN5rANCcbfIv0-31" value="+ name: String&lt;br&gt;+ subCategory: SubCategory[]&lt;br&gt;+ icon: String" style="text;strokeColor=#b85450;fillColor=#f8cecc;align=left;verticalAlign=top;spacingLeft=4;spacingRight=4;overflow=hidden;rotatable=0;points=[[0,0.5],[1,0.5]];portConstraint=eastwest;whiteSpace=wrap;html=1;" parent="mUevt5ZIN5rANCcbfIv0-30" vertex="1">
          <mxGeometry y="26" width="190" height="94" as="geometry" />
        </mxCell>
        <mxCell id="mUevt5ZIN5rANCcbfIv0-32" value="Notification" style="swimlane;fontStyle=1;align=center;verticalAlign=top;childLayout=stackLayout;horizontal=1;startSize=26;horizontalStack=0;resizeParent=1;resizeParentMax=0;resizeLast=0;collapsible=1;marginBottom=0;whiteSpace=wrap;html=1;fillColor=#dae8fc;strokeColor=#6c8ebf;" parent="1" vertex="1">
          <mxGeometry x="710" y="690" width="160" height="120" as="geometry" />
        </mxCell>
        <mxCell id="mUevt5ZIN5rANCcbfIv0-33" value="+ time: TimeStamp&lt;br&gt;+ iconPath: String&lt;br&gt;" style="text;strokeColor=#6c8ebf;fillColor=#dae8fc;align=left;verticalAlign=top;spacingLeft=4;spacingRight=4;overflow=hidden;rotatable=0;points=[[0,0.5],[1,0.5]];portConstraint=eastwest;whiteSpace=wrap;html=1;" parent="mUevt5ZIN5rANCcbfIv0-32" vertex="1">
          <mxGeometry y="26" width="160" height="94" as="geometry" />
        </mxCell>
        <mxCell id="mUevt5ZIN5rANCcbfIv0-34" value="Attachment" style="swimlane;fontStyle=1;align=center;verticalAlign=top;childLayout=stackLayout;horizontal=1;startSize=26;horizontalStack=0;resizeParent=1;resizeParentMax=0;resizeLast=0;collapsible=1;marginBottom=0;whiteSpace=wrap;html=1;fillColor=#dae8fc;strokeColor=#6c8ebf;" parent="1" vertex="1">
          <mxGeometry x="809" y="276" width="160" height="120" as="geometry" />
        </mxCell>
        <mxCell id="mUevt5ZIN5rANCcbfIv0-35" value="+ name: String&lt;br&gt;+ path: String&lt;br&gt;" style="text;strokeColor=#6c8ebf;fillColor=#dae8fc;align=left;verticalAlign=top;spacingLeft=4;spacingRight=4;overflow=hidden;rotatable=0;points=[[0,0.5],[1,0.5]];portConstraint=eastwest;whiteSpace=wrap;html=1;" parent="mUevt5ZIN5rANCcbfIv0-34" vertex="1">
          <mxGeometry y="26" width="160" height="94" as="geometry" />
        </mxCell>
        <mxCell id="mUevt5ZIN5rANCcbfIv0-36" value="Group Whiteboard" style="swimlane;fontStyle=1;align=center;verticalAlign=top;childLayout=stackLayout;horizontal=1;startSize=26;horizontalStack=0;resizeParent=1;resizeParentMax=0;resizeLast=0;collapsible=1;marginBottom=0;whiteSpace=wrap;html=1;fillColor=#dae8fc;strokeColor=#6c8ebf;" parent="1" vertex="1">
          <mxGeometry x="202" y="280" width="160" height="120" as="geometry" />
        </mxCell>
        <mxCell id="mUevt5ZIN5rANCcbfIv0-37" value="+ text: String" style="text;strokeColor=#6c8ebf;fillColor=#dae8fc;align=left;verticalAlign=top;spacingLeft=4;spacingRight=4;overflow=hidden;rotatable=0;points=[[0,0.5],[1,0.5]];portConstraint=eastwest;whiteSpace=wrap;html=1;" parent="mUevt5ZIN5rANCcbfIv0-36" vertex="1">
          <mxGeometry y="26" width="160" height="94" as="geometry" />
        </mxCell>
        <mxCell id="mUevt5ZIN5rANCcbfIv0-38" value="Group Setting" style="swimlane;fontStyle=1;align=center;verticalAlign=top;childLayout=stackLayout;horizontal=1;startSize=26;horizontalStack=0;resizeParent=1;resizeParentMax=0;resizeLast=0;collapsible=1;marginBottom=0;whiteSpace=wrap;html=1;fillColor=#dae8fc;strokeColor=#6c8ebf;" parent="1" vertex="1">
          <mxGeometry x="1011" y="280" width="160" height="120" as="geometry" />
        </mxCell>
        <mxCell id="mUevt5ZIN5rANCcbfIv0-39" value="+ simplifyDebt: boolean" style="text;strokeColor=#6c8ebf;fillColor=#dae8fc;align=left;verticalAlign=top;spacingLeft=4;spacingRight=4;overflow=hidden;rotatable=0;points=[[0,0.5],[1,0.5]];portConstraint=eastwest;whiteSpace=wrap;html=1;" parent="mUevt5ZIN5rANCcbfIv0-38" vertex="1">
          <mxGeometry y="26" width="160" height="94" as="geometry" />
        </mxCell>
        <mxCell id="mUevt5ZIN5rANCcbfIv0-40" value="User API Request" style="swimlane;fontStyle=1;align=center;verticalAlign=top;childLayout=stackLayout;horizontal=1;startSize=26;horizontalStack=0;resizeParent=1;resizeParentMax=0;resizeLast=0;collapsible=1;marginBottom=0;whiteSpace=wrap;html=1;fillColor=#dae8fc;strokeColor=#6c8ebf;" parent="1" vertex="1">
          <mxGeometry x="379" y="280" width="210" height="140" as="geometry" />
        </mxCell>
        <mxCell id="mUevt5ZIN5rANCcbfIv0-41" value="+ url: String&lt;br&gt;+ methodType: String&lt;br&gt;+ requestTimeStamp: Long&lt;br&gt;+ responseTimeStamp: Long&lt;br&gt;+ timeTaken: Long&lt;br&gt;+ requestBody: String&lt;br&gt;+ responseCode: Int" style="text;strokeColor=#6c8ebf;fillColor=#dae8fc;align=left;verticalAlign=top;spacingLeft=4;spacingRight=4;overflow=hidden;rotatable=0;points=[[0,0.5],[1,0.5]];portConstraint=eastwest;whiteSpace=wrap;html=1;" parent="mUevt5ZIN5rANCcbfIv0-40" vertex="1">
          <mxGeometry y="26" width="210" height="114" as="geometry" />
        </mxCell>
        <mxCell id="mUevt5ZIN5rANCcbfIv0-42" value="SubCategory" style="swimlane;fontStyle=1;align=center;verticalAlign=top;childLayout=stackLayout;horizontal=1;startSize=26;horizontalStack=0;resizeParent=1;resizeParentMax=0;resizeLast=0;collapsible=1;marginBottom=0;whiteSpace=wrap;html=1;fillColor=#f8cecc;strokeColor=#b85450;" parent="1" vertex="1">
          <mxGeometry x="1280" y="680" width="160" height="120" as="geometry" />
        </mxCell>
        <mxCell id="mUevt5ZIN5rANCcbfIv0-43" value="+ name: String&lt;br&gt;+ icon: String" style="text;strokeColor=#b85450;fillColor=#f8cecc;align=left;verticalAlign=top;spacingLeft=4;spacingRight=4;overflow=hidden;rotatable=0;points=[[0,0.5],[1,0.5]];portConstraint=eastwest;whiteSpace=wrap;html=1;" parent="mUevt5ZIN5rANCcbfIv0-42" vertex="1">
          <mxGeometry y="26" width="160" height="94" as="geometry" />
        </mxCell>
        <mxCell id="mUevt5ZIN5rANCcbfIv0-44" value="User Preference" style="swimlane;fontStyle=1;align=center;verticalAlign=top;childLayout=stackLayout;horizontal=1;startSize=26;horizontalStack=0;resizeParent=1;resizeParentMax=0;resizeLast=0;collapsible=1;marginBottom=0;whiteSpace=wrap;html=1;fillColor=#f8cecc;strokeColor=#b85450;" parent="1" vertex="1">
          <mxGeometry x="-220" y="700" width="300" height="200" as="geometry" />
        </mxCell>
        <mxCell id="mUevt5ZIN5rANCcbfIv0-45" value="&lt;span style=&quot;background-color: initial;&quot;&gt;+ receiveGroupInvitationNotification: boolean&lt;/span&gt;&lt;br&gt;&lt;div&gt;+ receiveFriendRequestNotification: boolean&lt;/div&gt;&lt;div&gt;+ receiveExpenseAddedNotification: boolean&lt;/div&gt;&lt;div&gt;+ receiveExpenseEditedDeletedNotification: boolean&lt;/div&gt;&lt;div&gt;+ receiveExpenseCommentNotification: boolean&lt;/div&gt;&lt;div&gt;+ receiveExpenseDueNotification: boolean&lt;/div&gt;&lt;div&gt;+ receivePaymentNotification: boolean&lt;/div&gt;&lt;div&gt;+ receiveMonthlySummaryNotification: boolean&lt;/div&gt;&lt;div&gt;+ receiveMajorUpdatesNotification: boolean&lt;/div&gt;" style="text;strokeColor=#b85450;fillColor=#f8cecc;align=left;verticalAlign=top;spacingLeft=4;spacingRight=4;overflow=hidden;rotatable=0;points=[[0,0.5],[1,0.5]];portConstraint=eastwest;whiteSpace=wrap;html=1;" parent="mUevt5ZIN5rANCcbfIv0-44" vertex="1">
          <mxGeometry y="26" width="300" height="174" as="geometry" />
        </mxCell>
        <mxCell id="mUevt5ZIN5rANCcbfIv0-46" value="Abstarct Entity" style="swimlane;fontStyle=1;align=center;verticalAlign=top;childLayout=stackLayout;horizontal=1;startSize=26;horizontalStack=0;resizeParent=1;resizeParentMax=0;resizeLast=0;collapsible=1;marginBottom=0;whiteSpace=wrap;html=1;fillColor=#d5e8d4;strokeColor=#82b366;" parent="1" vertex="1">
          <mxGeometry x="450" y="10" width="160" height="160" as="geometry" />
        </mxCell>
        <mxCell id="mUevt5ZIN5rANCcbfIv0-47" value="+ id: String&lt;br&gt;+createdOn: TimeStamp&lt;br&gt;+updateOn: TimeStamp&lt;br&gt;+deleted: boolean&lt;br&gt;+createBy: String&lt;br&gt;+updateBy: String&lt;br&gt;+deletedBy: String" style="text;strokeColor=#82b366;fillColor=#d5e8d4;align=left;verticalAlign=top;spacingLeft=4;spacingRight=4;overflow=hidden;rotatable=0;points=[[0,0.5],[1,0.5]];portConstraint=eastwest;whiteSpace=wrap;html=1;" parent="mUevt5ZIN5rANCcbfIv0-46" vertex="1">
          <mxGeometry y="26" width="160" height="134" as="geometry" />
        </mxCell>
        <mxCell id="mUevt5ZIN5rANCcbfIv0-48" value="OTP" style="swimlane;fontStyle=1;align=center;verticalAlign=top;childLayout=stackLayout;horizontal=1;startSize=26;horizontalStack=0;resizeParent=1;resizeParentMax=0;resizeLast=0;collapsible=1;marginBottom=0;whiteSpace=wrap;html=1;fillColor=#dae8fc;strokeColor=#6c8ebf;" parent="1" vertex="1">
          <mxGeometry x="90" y="870" width="160" height="120" as="geometry" />
        </mxCell>
        <mxCell id="mUevt5ZIN5rANCcbfIv0-49" value="+ accessTime: TimeStamp" style="text;strokeColor=#6c8ebf;fillColor=#dae8fc;align=left;verticalAlign=top;spacingLeft=4;spacingRight=4;overflow=hidden;rotatable=0;points=[[0,0.5],[1,0.5]];portConstraint=eastwest;whiteSpace=wrap;html=1;" parent="mUevt5ZIN5rANCcbfIv0-48" vertex="1">
          <mxGeometry y="26" width="160" height="94" as="geometry" />
        </mxCell>
        <mxCell id="mUevt5ZIN5rANCcbfIv0-55" value="Extends" style="endArrow=block;endSize=16;endFill=0;html=1;rounded=0;exitX=0;exitY=0.5;exitDx=0;exitDy=0;entryX=0.5;entryY=0;entryDx=0;entryDy=0;edgeStyle=orthogonalEdgeStyle;" parent="1" source="mUevt5ZIN5rANCcbfIv0-47" target="mUevt5ZIN5rANCcbfIv0-19" edge="1">
          <mxGeometry width="160" relative="1" as="geometry">
            <mxPoint x="160" y="160" as="sourcePoint" />
            <mxPoint x="150" y="240" as="targetPoint" />
          </mxGeometry>
        </mxCell>
        <mxCell id="mUevt5ZIN5rANCcbfIv0-61" value="Extends" style="endArrow=block;endSize=16;endFill=0;html=1;rounded=0;exitX=-0.012;exitY=0.903;exitDx=0;exitDy=0;exitPerimeter=0;edgeStyle=orthogonalEdgeStyle;" parent="1" source="mUevt5ZIN5rANCcbfIv0-47" edge="1">
          <mxGeometry width="160" relative="1" as="geometry">
            <mxPoint x="350" y="170" as="sourcePoint" />
            <mxPoint x="350" y="280" as="targetPoint" />
            <Array as="points">
              <mxPoint x="448" y="230" />
              <mxPoint x="351" y="230" />
              <mxPoint x="351" y="280" />
            </Array>
          </mxGeometry>
        </mxCell>
        <mxCell id="mUevt5ZIN5rANCcbfIv0-62" value="Extends" style="endArrow=block;endSize=16;endFill=0;html=1;rounded=0;exitX=1.022;exitY=0.935;exitDx=0;exitDy=0;exitPerimeter=0;entryX=0.5;entryY=0;entryDx=0;entryDy=0;edgeStyle=orthogonalEdgeStyle;" parent="1" source="mUevt5ZIN5rANCcbfIv0-47" target="mUevt5ZIN5rANCcbfIv0-26" edge="1">
          <mxGeometry width="160" relative="1" as="geometry">
            <mxPoint x="679.33" y="170" as="sourcePoint" />
            <mxPoint x="679.33" y="280" as="targetPoint" />
          </mxGeometry>
        </mxCell>
        <mxCell id="mUevt5ZIN5rANCcbfIv0-64" value="Extends" style="endArrow=block;endSize=16;endFill=0;html=1;rounded=0;entryX=0.5;entryY=0;entryDx=0;entryDy=0;edgeStyle=orthogonalEdgeStyle;" parent="1" target="mUevt5ZIN5rANCcbfIv0-40" edge="1">
          <mxGeometry width="160" relative="1" as="geometry">
            <mxPoint x="487" y="170" as="sourcePoint" />
            <mxPoint x="510" y="450" as="targetPoint" />
          </mxGeometry>
        </mxCell>
        <mxCell id="mUevt5ZIN5rANCcbfIv0-65" value="Extends" style="endArrow=block;endSize=16;endFill=0;html=1;rounded=0;entryX=0.563;entryY=-0.033;entryDx=0;entryDy=0;entryPerimeter=0;orthogonal=1;edgeStyle=orthogonalEdgeStyle;" parent="1" target="mUevt5ZIN5rANCcbfIv0-48" edge="1">
          <mxGeometry width="160" relative="1" as="geometry">
            <mxPoint x="560" y="170" as="sourcePoint" />
            <mxPoint x="130" y="530" as="targetPoint" />
          </mxGeometry>
        </mxCell>
        <mxCell id="mUevt5ZIN5rANCcbfIv0-67" value="Extends" style="endArrow=block;endSize=16;endFill=0;html=1;rounded=0;entryX=0.5;entryY=0;entryDx=0;entryDy=0;edgeStyle=orthogonalEdgeStyle;" parent="1" target="mUevt5ZIN5rANCcbfIv0-36" edge="1">
          <mxGeometry width="160" relative="1" as="geometry">
            <mxPoint x="501" y="170" as="sourcePoint" />
            <mxPoint x="80" y="720" as="targetPoint" />
            <Array as="points">
              <mxPoint x="501" y="190" />
              <mxPoint x="282" y="190" />
            </Array>
          </mxGeometry>
        </mxCell>
        <mxCell id="mUevt5ZIN5rANCcbfIv0-68" value="Extends" style="endArrow=block;endSize=16;endFill=0;html=1;rounded=0;entryX=0.5;entryY=0;entryDx=0;entryDy=0;edgeStyle=orthogonalEdgeStyle;" parent="1" target="mUevt5ZIN5rANCcbfIv0-32" edge="1">
          <mxGeometry width="160" relative="1" as="geometry">
            <mxPoint x="541" y="174" as="sourcePoint" />
            <mxPoint x="840" y="730" as="targetPoint" />
          </mxGeometry>
        </mxCell>
        <mxCell id="mUevt5ZIN5rANCcbfIv0-69" value="Extends" style="endArrow=block;endSize=16;endFill=0;html=1;rounded=0;entryX=0.5;entryY=0;entryDx=0;entryDy=0;exitX=0.364;exitY=1.006;exitDx=0;exitDy=0;exitPerimeter=0;edgeStyle=orthogonalEdgeStyle;" parent="1" source="mUevt5ZIN5rANCcbfIv0-47" target="mUevt5ZIN5rANCcbfIv0-34" edge="1">
          <mxGeometry width="160" relative="1" as="geometry">
            <mxPoint x="511" y="180" as="sourcePoint" />
            <mxPoint x="90" y="790" as="targetPoint" />
          </mxGeometry>
        </mxCell>
        <mxCell id="mUevt5ZIN5rANCcbfIv0-70" value="Extends" style="endArrow=block;endSize=16;endFill=0;html=1;rounded=0;entryX=0.5;entryY=0;entryDx=0;entryDy=0;edgeStyle=orthogonalEdgeStyle;exitX=0;exitY=0.5;exitDx=0;exitDy=0;" parent="1" source="mUevt5ZIN5rANCcbfIv0-47" target="mUevt5ZIN5rANCcbfIv0-38" edge="1">
          <mxGeometry width="160" relative="1" as="geometry">
            <mxPoint x="551" y="184" as="sourcePoint" />
            <mxPoint x="1500" y="840" as="targetPoint" />
            <Array as="points">
              <mxPoint x="440" y="103" />
              <mxPoint x="440" y="200" />
              <mxPoint x="1091" y="200" />
            </Array>
          </mxGeometry>
        </mxCell>
        <mxCell id="mUevt5ZIN5rANCcbfIv0-72" value="Extends" style="endArrow=block;endSize=16;endFill=0;html=1;rounded=0;entryX=0.5;entryY=0;entryDx=0;entryDy=0;edgeStyle=orthogonalEdgeStyle;" parent="1" target="mUevt5ZIN5rANCcbfIv0-28" edge="1">
          <mxGeometry width="160" relative="1" as="geometry">
            <mxPoint x="571" y="178" as="sourcePoint" />
            <mxPoint x="572" y="970" as="targetPoint" />
          </mxGeometry>
        </mxCell>
        <mxCell id="mUevt5ZIN5rANCcbfIv0-73" value="GroupLedger" style="swimlane;fontStyle=1;align=center;verticalAlign=top;childLayout=stackLayout;horizontal=1;startSize=26;horizontalStack=0;resizeParent=1;resizeParentMax=0;resizeLast=0;collapsible=1;marginBottom=0;whiteSpace=wrap;html=1;fillColor=#dae8fc;strokeColor=#6c8ebf;" parent="1" vertex="1">
          <mxGeometry x="1440" y="282" width="160" height="116" as="geometry" />
        </mxCell>
        <mxCell id="mUevt5ZIN5rANCcbfIv0-74" value="+ field: type" style="text;strokeColor=#6c8ebf;fillColor=#dae8fc;align=left;verticalAlign=top;spacingLeft=4;spacingRight=4;overflow=hidden;rotatable=0;points=[[0,0.5],[1,0.5]];portConstraint=eastwest;whiteSpace=wrap;html=1;" parent="mUevt5ZIN5rANCcbfIv0-73" vertex="1">
          <mxGeometry y="26" width="160" height="90" as="geometry" />
        </mxCell>
        <mxCell id="mUevt5ZIN5rANCcbfIv0-75" value="Extends" style="endArrow=block;endSize=16;endFill=0;html=1;rounded=0;entryX=0.5;entryY=0;entryDx=0;entryDy=0;edgeStyle=orthogonalEdgeStyle;" parent="1" target="mUevt5ZIN5rANCcbfIv0-73" edge="1">
          <mxGeometry width="160" relative="1" as="geometry">
            <mxPoint x="610" y="127" as="sourcePoint" />
            <mxPoint x="770" y="127" as="targetPoint" />
          </mxGeometry>
        </mxCell>
        <mxCell id="Soge9pQq2DPIJWdXiMsc-5" value="" style="endArrow=block;startArrow=block;endFill=1;startFill=1;html=1;rounded=0;exitX=0.684;exitY=0.995;exitDx=0;exitDy=0;exitPerimeter=0;entryX=0.336;entryY=1.013;entryDx=0;entryDy=0;entryPerimeter=0;" edge="1" parent="1" source="mUevt5ZIN5rANCcbfIv0-20">
          <mxGeometry width="160" relative="1" as="geometry">
            <mxPoint x="110" y="387.7080000000001" as="sourcePoint" />
            <mxPoint x="650.7600000000002" y="401.2220000000002" as="targetPoint" />
            <Array as="points">
              <mxPoint x="110" y="560" />
              <mxPoint x="650" y="560" />
            </Array>
          </mxGeometry>
        </mxCell>
        <mxCell id="Soge9pQq2DPIJWdXiMsc-6" value="1" style="text;html=1;strokeColor=none;fillColor=none;align=center;verticalAlign=middle;whiteSpace=wrap;rounded=0;" vertex="1" parent="1">
          <mxGeometry x="120" y="380" width="60" height="30" as="geometry" />
        </mxCell>
        <mxCell id="Soge9pQq2DPIJWdXiMsc-7" value="0..*" style="text;html=1;strokeColor=none;fillColor=none;align=center;verticalAlign=middle;whiteSpace=wrap;rounded=0;" vertex="1" parent="1">
          <mxGeometry x="820" y="396" width="60" height="30" as="geometry" />
        </mxCell>
        <mxCell id="Soge9pQq2DPIJWdXiMsc-9" value="1" style="endArrow=open;html=1;endSize=12;startArrow=diamondThin;startSize=14;startFill=1;edgeStyle=orthogonalEdgeStyle;align=left;verticalAlign=bottom;rounded=0;exitX=0.35;exitY=1.036;exitDx=0;exitDy=0;exitPerimeter=0;" edge="1" parent="1" source="mUevt5ZIN5rANCcbfIv0-20">
          <mxGeometry x="-1" y="3" relative="1" as="geometry">
            <mxPoint x="60" y="410" as="sourcePoint" />
            <mxPoint x="-100" y="690" as="targetPoint" />
            <Array as="points">
              <mxPoint x="56" y="505" />
              <mxPoint x="-100" y="505" />
            </Array>
          </mxGeometry>
        </mxCell>
        <mxCell id="Soge9pQq2DPIJWdXiMsc-10" value="1" style="endArrow=open;html=1;endSize=12;startArrow=diamondThin;startSize=14;startFill=0;edgeStyle=orthogonalEdgeStyle;align=left;verticalAlign=bottom;rounded=0;entryX=0.367;entryY=1.025;entryDx=0;entryDy=0;exitX=0.456;exitY=0.991;exitDx=0;exitDy=0;exitPerimeter=0;entryPerimeter=0;" edge="1" parent="1" source="mUevt5ZIN5rANCcbfIv0-25" target="mUevt5ZIN5rANCcbfIv0-35">
          <mxGeometry x="-1" y="3" relative="1" as="geometry">
            <mxPoint x="680" y="410" as="sourcePoint" />
            <mxPoint x="830" y="480" as="targetPoint" />
            <Array as="points">
              <mxPoint x="680" y="540" />
              <mxPoint x="831" y="540" />
              <mxPoint x="831" y="480" />
              <mxPoint x="870" y="480" />
              <mxPoint x="870" y="402" />
            </Array>
          </mxGeometry>
        </mxCell>
        <mxCell id="Soge9pQq2DPIJWdXiMsc-11" value="" style="endArrow=diamondThin;endFill=1;endSize=24;html=1;rounded=0;entryX=0.73;entryY=1.048;entryDx=0;entryDy=0;entryPerimeter=0;exitX=0.099;exitY=-0.024;exitDx=0;exitDy=0;exitPerimeter=0;" edge="1" parent="1" source="mUevt5ZIN5rANCcbfIv0-32" target="mUevt5ZIN5rANCcbfIv0-25">
          <mxGeometry width="160" relative="1" as="geometry">
            <mxPoint x="590" y="500" as="sourcePoint" />
            <mxPoint x="750" y="500" as="targetPoint" />
          </mxGeometry>
        </mxCell>
        <mxCell id="Soge9pQq2DPIJWdXiMsc-12" value="1" style="text;html=1;strokeColor=none;fillColor=none;align=center;verticalAlign=middle;whiteSpace=wrap;rounded=0;" vertex="1" parent="1">
          <mxGeometry x="710" y="400" width="60" height="30" as="geometry" />
        </mxCell>
        <mxCell id="Soge9pQq2DPIJWdXiMsc-13" value="1..*" style="text;html=1;strokeColor=none;fillColor=none;align=center;verticalAlign=middle;whiteSpace=wrap;rounded=0;" vertex="1" parent="1">
          <mxGeometry x="710" y="660" width="60" height="30" as="geometry" />
        </mxCell>
        <mxCell id="Soge9pQq2DPIJWdXiMsc-15" value="" style="endArrow=block;startArrow=block;endFill=1;startFill=1;html=1;rounded=0;entryX=0.25;entryY=0;entryDx=0;entryDy=0;edgeStyle=orthogonalEdgeStyle;" edge="1" parent="1" target="mUevt5ZIN5rANCcbfIv0-28">
          <mxGeometry width="160" relative="1" as="geometry">
            <mxPoint x="140" y="380" as="sourcePoint" />
            <mxPoint x="310" y="480" as="targetPoint" />
            <Array as="points">
              <mxPoint x="140" y="520" />
              <mxPoint x="419" y="520" />
            </Array>
          </mxGeometry>
        </mxCell>
        <mxCell id="Soge9pQq2DPIJWdXiMsc-16" value="" style="endArrow=diamondThin;endFill=1;endSize=24;html=1;rounded=0;entryX=0.536;entryY=1.062;entryDx=0;entryDy=0;entryPerimeter=0;exitX=0.5;exitY=1;exitDx=0;exitDy=0;edgeStyle=orthogonalEdgeStyle;" edge="1" parent="1" source="mUevt5ZIN5rANCcbfIv0-42" target="mUevt5ZIN5rANCcbfIv0-31">
          <mxGeometry width="160" relative="1" as="geometry">
            <mxPoint x="1907" y="650" as="sourcePoint" />
            <mxPoint x="1980" y="540" as="targetPoint" />
            <Array as="points">
              <mxPoint x="1360" y="910" />
              <mxPoint x="1042" y="910" />
            </Array>
          </mxGeometry>
        </mxCell>
        <mxCell id="Soge9pQq2DPIJWdXiMsc-17" value="" style="endArrow=diamondThin;endFill=1;endSize=24;html=1;rounded=0;entryX=0;entryY=0;entryDx=0;entryDy=0;exitX=0.423;exitY=1.055;exitDx=0;exitDy=0;exitPerimeter=0;" edge="1" parent="1" source="mUevt5ZIN5rANCcbfIv0-39" target="Soge9pQq2DPIJWdXiMsc-26">
          <mxGeometry width="160" relative="1" as="geometry">
            <mxPoint x="1190" y="470" as="sourcePoint" />
            <mxPoint x="1350" y="470" as="targetPoint" />
            <Array as="points">
              <mxPoint x="1079" y="520" />
              <mxPoint x="1316" y="520" />
            </Array>
          </mxGeometry>
        </mxCell>
        <mxCell id="Soge9pQq2DPIJWdXiMsc-18" value="1" style="text;html=1;strokeColor=none;fillColor=none;align=center;verticalAlign=middle;whiteSpace=wrap;rounded=0;" vertex="1" parent="1">
          <mxGeometry x="990" y="800" width="60" height="30" as="geometry" />
        </mxCell>
        <mxCell id="Soge9pQq2DPIJWdXiMsc-19" value="0..*" style="text;html=1;strokeColor=none;fillColor=none;align=center;verticalAlign=middle;whiteSpace=wrap;rounded=0;" vertex="1" parent="1">
          <mxGeometry x="1070" y="398" width="60" height="30" as="geometry" />
        </mxCell>
        <mxCell id="Soge9pQq2DPIJWdXiMsc-20" value="" style="endArrow=diamondThin;endFill=1;endSize=24;html=1;rounded=0;entryX=0.309;entryY=1.024;entryDx=0;entryDy=0;entryPerimeter=0;" edge="1" parent="1" target="mUevt5ZIN5rANCcbfIv0-27">
          <mxGeometry width="160" relative="1" as="geometry">
            <mxPoint x="280" y="400" as="sourcePoint" />
            <mxPoint x="920" y="440" as="targetPoint" />
            <Array as="points">
              <mxPoint x="280" y="590" />
              <mxPoint x="1280" y="600" />
            </Array>
          </mxGeometry>
        </mxCell>
        <mxCell id="Soge9pQq2DPIJWdXiMsc-21" value="1" style="text;html=1;strokeColor=none;fillColor=none;align=center;verticalAlign=middle;whiteSpace=wrap;rounded=0;" vertex="1" parent="1">
          <mxGeometry x="1230" y="400" width="60" height="30" as="geometry" />
        </mxCell>
        <mxCell id="Soge9pQq2DPIJWdXiMsc-22" value="1" style="text;html=1;strokeColor=none;fillColor=none;align=center;verticalAlign=middle;whiteSpace=wrap;rounded=0;" vertex="1" parent="1">
          <mxGeometry x="260" y="402" width="60" height="30" as="geometry" />
        </mxCell>
        <mxCell id="Soge9pQq2DPIJWdXiMsc-23" value="1" style="text;html=1;strokeColor=none;fillColor=none;align=center;verticalAlign=middle;whiteSpace=wrap;rounded=0;" vertex="1" parent="1">
          <mxGeometry x="1270" y="400" width="60" height="30" as="geometry" />
        </mxCell>
        <mxCell id="Soge9pQq2DPIJWdXiMsc-24" value="0..*" style="text;html=1;strokeColor=none;fillColor=none;align=center;verticalAlign=middle;whiteSpace=wrap;rounded=0;" vertex="1" parent="1">
          <mxGeometry x="1320" y="800" width="60" height="30" as="geometry" />
        </mxCell>
        <mxCell id="Soge9pQq2DPIJWdXiMsc-25" value="" style="endArrow=diamondThin;endFill=1;endSize=24;html=1;rounded=0;entryX=0.873;entryY=1.026;entryDx=0;entryDy=0;entryPerimeter=0;exitX=0.454;exitY=1.011;exitDx=0;exitDy=0;exitPerimeter=0;" edge="1" parent="1" source="mUevt5ZIN5rANCcbfIv0-74" target="mUevt5ZIN5rANCcbfIv0-27">
          <mxGeometry width="160" relative="1" as="geometry">
            <mxPoint x="1360" y="490" as="sourcePoint" />
            <mxPoint x="1520" y="490" as="targetPoint" />
            <Array as="points">
              <mxPoint x="1513" y="520" />
              <mxPoint x="1370" y="520" />
            </Array>
          </mxGeometry>
        </mxCell>
        <mxCell id="Soge9pQq2DPIJWdXiMsc-26" value="1" style="text;html=1;strokeColor=none;fillColor=none;align=center;verticalAlign=middle;whiteSpace=wrap;rounded=0;" vertex="1" parent="1">
          <mxGeometry x="1320" y="400" width="60" height="30" as="geometry" />
        </mxCell>
        <mxCell id="Soge9pQq2DPIJWdXiMsc-27" value="1" style="text;html=1;strokeColor=none;fillColor=none;align=center;verticalAlign=middle;whiteSpace=wrap;rounded=0;" vertex="1" parent="1">
          <mxGeometry x="1470" y="396" width="60" height="30" as="geometry" />
        </mxCell>
        <mxCell id="Soge9pQq2DPIJWdXiMsc-28" value="" style="endArrow=diamondThin;endFill=1;endSize=24;html=1;rounded=0;edgeStyle=orthogonalEdgeStyle;" edge="1" parent="1" source="mUevt5ZIN5rANCcbfIv0-48" target="mUevt5ZIN5rANCcbfIv0-20">
          <mxGeometry width="160" relative="1" as="geometry">
            <mxPoint x="110" y="860" as="sourcePoint" />
            <mxPoint x="60" y="550" as="targetPoint" />
            <Array as="points">
              <mxPoint x="110" y="620" />
              <mxPoint x="90" y="620" />
            </Array>
          </mxGeometry>
        </mxCell>
        <mxCell id="Soge9pQq2DPIJWdXiMsc-30" value="1..*" style="text;html=1;strokeColor=none;fillColor=none;align=center;verticalAlign=middle;whiteSpace=wrap;rounded=0;" vertex="1" parent="1">
          <mxGeometry x="70" y="830" width="60" height="30" as="geometry" />
        </mxCell>
        <mxCell id="Soge9pQq2DPIJWdXiMsc-31" value="1" style="text;html=1;strokeColor=none;fillColor=none;align=center;verticalAlign=middle;whiteSpace=wrap;rounded=0;" vertex="1" parent="1">
          <mxGeometry x="50" y="410" width="60" height="30" as="geometry" />
        </mxCell>
        <mxCell id="Soge9pQq2DPIJWdXiMsc-33" value="" style="endArrow=block;startArrow=block;endFill=1;startFill=1;html=1;rounded=0;exitX=0.75;exitY=0;exitDx=0;exitDy=0;entryX=0.25;entryY=0;entryDx=0;entryDy=0;" edge="1" parent="1" source="Soge9pQq2DPIJWdXiMsc-12" target="mUevt5ZIN5rANCcbfIv0-30">
          <mxGeometry width="160" relative="1" as="geometry">
            <mxPoint x="740" y="510" as="sourcePoint" />
            <mxPoint x="900" y="510" as="targetPoint" />
            <Array as="points">
              <mxPoint x="760" y="630" />
              <mxPoint x="988" y="630" />
            </Array>
          </mxGeometry>
        </mxCell>
        <mxCell id="Soge9pQq2DPIJWdXiMsc-35" value="" style="endArrow=block;startArrow=block;endFill=1;startFill=1;html=1;rounded=0;entryX=0.5;entryY=0;entryDx=0;entryDy=0;" edge="1" parent="1" target="mUevt5ZIN5rANCcbfIv0-42">
          <mxGeometry width="160" relative="1" as="geometry">
            <mxPoint x="620" y="400" as="sourcePoint" />
            <mxPoint x="1380" y="650" as="targetPoint" />
            <Array as="points">
              <mxPoint x="620" y="650" />
              <mxPoint x="1360" y="650" />
            </Array>
          </mxGeometry>
        </mxCell>
        <mxCell id="Soge9pQq2DPIJWdXiMsc-36" value="1" style="text;html=1;strokeColor=none;fillColor=none;align=center;verticalAlign=middle;whiteSpace=wrap;rounded=0;" vertex="1" parent="1">
          <mxGeometry x="-150" y="670" width="60" height="30" as="geometry" />
        </mxCell>
      </root>
    </mxGraphModel>
  </diagram>
</mxfile>
